<?xml version="1.0" encoding="utf-8"?>
<!-- Generator: Adobe Illustrator 27.2.0, SVG Export Plug-In . SVG Version: 6.00 Build 0)  -->
<svg version="1.1" id="SD_x5F_VS_x5F_Logo" xmlns="http://www.w3.org/2000/svg" xmlns:xlink="http://www.w3.org/1999/xlink" x="0px"
	 y="0px" viewBox="0 0 323.12 228.98" style="enable-background:new 0 0 323.12 228.98;" xml:space="preserve">
<style type="text/css">
	.st0{fill:#1E376C;}
	.st1{font-family:'Helvetica';}
	.st2{font-size:12.5268px;}
	.st3{fill:#00AEEF;}
	.st4{fill:#FFFFFF;}
	.st5{fill:#FED103;}
	.st6{font-family:"azo-sans-web", sans-serif;}
	.st6{font-weight: 700;}
	.st7{font-size:57.1434px;}
	.st8{letter-spacing:-1.99;}
	.st9{letter-spacing:-0.99;}
</style>
<g>
	<g>
		<text transform="matrix(0.8 0 0 1 311.5412 113.5191)" class="st0 st1 st2">™</text>
	</g>
	<g>
		<path class="st0" d="M312.81,73.9c-0.08-3.79-0.23-7.58-0.24-11.3c-0.03-9.91,0.57-20.04-0.1-29.94c-0.28-4.18-1.43-7.8-2.45-11
			l-0.08-0.25c-0.92-2.9-2.22-5.41-4.19-8.14c-5.58-7.71-14.12-10.48-20.77-11.07c-0.42-0.04-0.84-0.06-1.26-0.08
			s-0.83-0.03-1.25-0.04c-3.36-0.08-6.51,0.01-9.41,0.12c-4.05,0.16-26.1,1.46-29.26,2.26c-5.13,1.3-7.3,2.97-8.74,5.19
			c-1.35,2.09-1.57,5.15-1.57,6c0,1.75-0.02,5.1-0.13,7.24c-0.03,0.55-0.06,1.11-0.08,1.68l-0.57,0.02
			c-5.01,0.19-9.89,0.46-14.48,1.77c-3.34,0.95-4.98,3.27-5.89,5.46c-1.18-1.81-3.14-3.73-6.43-4.29c-0.45-0.08-0.92-0.13-1.39-0.15
			c-3.19-0.14-6.67,0.43-9.8,0.93c-0.35,0.06-1.9,0.36-3.44,0.78c-1.07,0.29-2.75,0.77-4.36,1.75c-0.53-0.19-1.08-0.35-1.66-0.47
			c-1.21-0.23-2.47-0.38-3.74-0.43c-3.58-0.16-7.38,0.34-11.63,1.52l-0.57,0.16c-2.75,0.77-4.79,2.9-5.52,5.59l-0.2-0.29
			c-1.26-1.83-3.16-3.12-5.29-3.61l-0.34-0.08c-0.62-0.14-1.26-0.23-1.96-0.26c-0.28-0.01-0.63-0.02-1.01-0.02
			c-0.14,0-0.28,0-0.41,0c-0.02,0-0.06,0-0.08,0c-4.66-0.17-9.63,0.86-11.73,1.67c-0.06,0.02-2.62,1.29-3.21,3.16
			c-0.75-0.79-1.45-1.2-2.62-1.42c-1.21-0.23-2.47-0.38-3.75-0.43c-3.58-0.16-7.38,0.34-11.63,1.52L121,37.61
			c-2.73,0.76-4.77,2.88-5.5,5.54c-0.73-0.99-1.65-1.91-2.82-2.66c-1.55-0.99-3.31-1.53-5.24-1.62c-0.25-0.01-0.52-0.01-0.77-0.01
			c-0.03,0-0.05,0-0.08,0c-0.02,0-0.05,0-0.07,0c-4.64-0.17-8.67,0.9-11.91,1.76l-0.08,0.02l-0.57,0.15
			c-0.86,0.23-1.66,0.6-2.37,1.07c-0.58-0.25-1.21-0.47-1.91-0.63c-1.37-0.31-3.95-0.48-4.41-0.5c-0.22-0.01-0.42-0.02-0.59-0.02
			c-1.89-0.02-3.94,0.21-5.95,0.66l-0.11,0.02l-0.09,0.02c-2.27,0.41-3.97,0.78-5.43,1.39c-1.73,0.73-2.95,1.71-3.8,2.76
			c-1.47-1.23-3.29-1.94-5.16-2.02c-0.06,0-0.12,0-0.18-0.01c-0.23-0.01-2.3-0.05-3.28-0.05c-2.08,0.01-4.84,0.12-7.88,0.94
			l-0.04,0.01c-1.01,0.22-2.6,0.56-4.2,1.38c-2.16,1.1-3.73,2.8-4.61,4.81c-2.7-1.93-5.77-3.29-9.05-3.93
			c-1.16-0.23-2.38-0.37-3.63-0.43c-3.96-0.18-8.16,0.49-11.83,1.89c-0.16,0.06-0.31,0.12-0.46,0.19l-2.5,1.14
			c-0.07,0.03-0.14,0.06-0.21,0.1c-3.08,1.51-5.65,3.26-7.64,5.21c-0.02,0.02-0.04,0.04-0.06,0.06l-0.86,0.86
			c-6.09,6.02-7.63,15.32-7.1,21.45c0.03,0.3,0.04,0.6,0.06,0.9c0.08,1.33,0.18,2.97,0.64,4.81C1.6,84.05,1.92,85.04,2.3,86
			c1.29,3.24,3.33,5.75,5.42,7.73c-0.55,0.2-1.11,0.42-1.66,0.68c-5.01,2.31-5.28,7.48-5.4,9.68c0,0,0,0.06,0,0.08
			c-0.13,1.51-0.14,2.89-0.04,4.24c0.43,5.58,1.09,14,8.68,20.1c3.11,2.49,6.89,4.17,10.94,4.85c0.75,0.13,1.53,0.21,2.31,0.24
			c4.87,0.22,10.61-0.86,15.11-2.55c1.46-0.55,2.63-1.12,3.7-1.82c0.47-0.31,0.86-0.61,1.17-0.86c3.15-1.6,4.95-4.18,5.97-5.64
			c0.4-0.58,0.78-1.16,1.14-1.75c0.52,0.59,1.16,1.26,2,1.98c2.83,2.41,6.08,4.09,9.92,5.13c1.37,0.37,2.85,0.59,4.4,0.66
			c2.44,0.11,4.68-0.16,6.36-0.42c2.08-0.31,4.29-0.67,6.52-1.37c0.78-0.24,1.53-0.52,2.22-0.82c1.39-0.6,2.47-1.32,3.26-1.84
			c0.23-0.15,0.47-0.3,0.7-0.44c0.82-0.51,1.83-1.13,2.86-1.98c0.41-0.34,1.01-0.87,1.69-1.54c1.47,2.45,4.08,4.11,6.91,4.31
			l0.53,0.04c0.17,0.01,0.35,0.02,0.54,0.03c5.26,0.24,13.35-1.38,14.48-1.78l0.53-0.19c1.87-0.68,3.42-2.3,4.32-3.98
			c1.57,1.9,4.05,3.08,6.51,3.19c3.74,0.17,7.11-0.44,10.76-1.02c3.05-0.48,4.8-1.2,7.03-3.53c1.22,0.7,2.63,1.52,4.1,1.62
			c0.17,0.01,0.35,0.02,0.53,0.03c5.26,0.24,13.59-1.58,14.72-1.98l0.53-0.19c1.87-0.68,3.21-2.44,4.11-4.12
			c1.57,1.9,3.99,3.03,6.45,3.27c0.96,0.09,2.69-0.04,3.89-0.17c4.1-0.45,8.86-0.7,12.61-2.44c3.24-1.5,5.18-4.54,5.18-8.14
			c0-4.7-0.06-8.66-0.18-12.44c-0.3-9.3-0.21-18.78-0.09-28.04c0.5,1.18,0.99,2.36,1.49,3.54c1.07,2.54,2.02,4.78,2.99,6.97
			c-0.21,6.23-0.13,12.28-0.02,17.47v0.09c0.04,1.71,0.07,3.32-0.03,4.71c-0.07,0.97-0.06,4.41-0.01,5.34
			c0.23,4.63,3.59,9.24,10.1,9.54c0.83,0.04,1.58,0,2.08-0.02l0.21-0.01c0.51,0,1.02-0.04,1.51-0.14l0.08-0.01
			c0.81-0.15,4.05-0.46,5.61-0.73c1.67-0.06,4.38-0.2,6.81-1.93l0.29-0.21c1.85-1.31,3.04-3.37,3.29-5.67l0.04-0.36
			c0.26-2.35,0.15-4.57,0.05-6.72c-0.05-1-0.09-1.95-0.09-2.81c0-2.09,0.08-4.29,0.18-6.55c0.18-2.83,0.09-5.65,0-8.39
			c-0.04-1.32-0.09-2.58-0.09-3.74c0.13-0.33,0.29-0.71,0.52-1.21c0.2-0.45,0.4-0.9,0.6-1.38c0.03-0.07,0.06-0.15,0.09-0.22
			c1.66-4.36,3.36-8.67,4.92-12.58c0.01,1.3,0.03,2.6,0.04,3.9c0.07,8.26,0.1,16.64,0.09,24.9c0,1.94-0.05,3.99-0.09,5.97
			c-0.14,6.21-0.3,13.22,0.87,20.19l0.08,0.49c0.58,3.45,2.94,6.4,6.19,7.73l0.46,0.19c1.4,0.57,2.92,0.89,4.65,0.97
			c1.15,0.05,2.23,0,3.09-0.05c0.2-0.01,0.39-0.02,0.55-0.03c5.63,0.21,11.25-0.96,16.75-1.79c7.9-1.2,16.87-1.47,24.29-4.41
			c2.55-1.01,5.03-2.45,7.35-4.26c3.83-2.99,7.17-6.93,9.66-11.41c2.67-4.81,4.39-10.18,4.85-15.11
			C312.91,82.76,312.91,78.33,312.81,73.9z"/>
		<g>
			<g>
				<path class="st3" d="M137.96,107.84c0-0.76,0-1.52,0-2.27c0.01-2.17,0.02-4.42-0.13-6.68c-0.18-2.78-0.27-5.78-0.29-9.17
					c-0.02-3.96,0.06-8,0.14-11.9c0.05-2.2,0.09-4.39,0.12-6.59c0.02-1.7,0.05-3.4,0.09-5.1c0.07-3.63,0.14-7.38,0.11-11.08
					c0-0.14,0-0.5,0-1c0.01-1.23,0.02-3.3,0-5.06c-0.01-1.18-0.1-3.05-0.1-3.19c0.01-0.21-0.05-0.44-0.33-1.02
					c-0.69-1.41-2.4-2.04-2.74-2.26c-0.19-0.12-1.14-0.52-1.44-0.58c-0.82-0.16-1.69-0.26-2.57-0.3c-2.71-0.12-5.7,0.28-9.12,1.24
					c0,0-0.71,0.07-0.73,0.95c-0.02,0.88-0.04,3.99-0.03,5.77l0.01,1.68c0.01,2.27,0.03,4.54,0.06,6.8v0.08
					c0.05,4.75,0.1,9.62,0.01,14.47c-0.5-1.16-1-2.32-1.49-3.46c-0.98-2.31-2-4.7-3.06-7.01c-0.45-0.99-0.88-2.03-1.29-3.03
					c-0.58-1.4-1.18-2.84-1.87-4.26l-0.19-0.38c-0.55-1.12-1.52-3.41-1.52-3.41c-0.49-1.4-0.88-2.32-1.26-2.95
					c0,0-0.08-0.15-0.13-0.22c-0.02-0.02-0.03-0.05-0.05-0.07c-0.83-1.24-1.75-1.98-2.57-2.42c-0.51-0.27-1.46-0.73-2-0.78
					c-0.19-0.02-0.37-0.06-0.53-0.06c-0.14-0.01-0.28-0.01-0.42-0.01h-0.06c-0.09,0-0.17,0-0.24,0l-0.14-0.01
					c-3.42-0.12-6.54,0.7-9.55,1.5l-0.48,0.13c0,0-0.3,0.08-0.31,0.35c-0.01,0.19-0.03,0.47-0.03,0.47
					c-0.25,5.29-0.21,10.47-0.13,14.83c0.08,4.84,0.02,9.75-0.04,14.54v0.12c-0.08,6.21-0.11,12.52-0.09,18.76
					c0.01,3.16,0.03,6.32,0.07,9.39c0.02,1.56,0.04,3.13,0.06,4.7c0,0.29-0.02,0.61-0.05,0.97c-0.08,0.92-0.17,1.96,0.28,2.98
					l0.27,0.61h0.01c0.32,0.72,1.52,3.16,3.5,3.4c0.01,0,0.02,0.01,0.03,0.01c0.11,0.01,0.22,0.01,0.33,0.02
					c4.07,0.18,11.28-1.45,11.76-1.62c0.64-0.23,1.06-0.84,1.06-1.53c0-1.58,0.06-3.19,0.12-4.75c0.06-1.65,0.13-3.36,0.12-5.07
					c0-1.47-0.03-2.94-0.05-4.41c-0.03-1.82-0.06-3.7-0.05-5.54c0.01-1.68-0.03-3.38-0.07-5.03c-0.01-0.51-0.02-1.01-0.03-1.52
					c1.14,2.65,2.27,5.33,3.35,8.01c1.1,2.73,2.25,5.43,3.34,7.97c0.34,0.8,0.74,1.62,1.08,2.35c0.66,1.39,1.35,2.83,1.78,4.21
					l0.25,0.82h-0.01c0,0,1.24,3.29,3.64,3.33c0.01,0,0.02,0.01,0.03,0.01c0.08,0,0.17,0,0.26-0.01c0.65-0.07,1.38-0.07,2.14-0.08
					c0.44,0,0.88,0,1.32-0.02c1.76,0,3.57-0.29,5.33-0.56c0.96-0.15,1.95-0.31,2.91-0.41c0.05-0.01,0.1-0.01,0.16-0.02
					c0.62-0.13,1.39-0.59,1.56-2.09c0.1-0.86,0.03-1.99-0.04-3.07C137.97,108.09,137.96,107.93,137.96,107.84z"/>
				<path class="st3" d="M186.11,60.88l0.06-4.52l0.06-4.32l0.06-4.32c0-0.37,0.03-2.35,0.02-4.24c-0.01-1.09-0.02-1.96-0.04-2.59
					c-0.01-0.35-0.03-0.72-0.09-1.08h0.01c-0.07-1.62-1.28-1.98-2.47-2.82c-0.6-0.42-1.16-0.7-1.51-0.85
					c-0.83-0.36-2.2-0.43-3.09-0.47c-2.71-0.12-5.7,0.28-9.12,1.24c0,0-0.71,0.13-0.73,0.95c-0.02,0.81-0.05,4.86-0.02,7.21v0.51
					c0.01,0.68,0.01,1.37,0.02,2.05c0.01,2.61,0.05,5.3,0.1,7.94c0.06,3.83,0.12,7.74,0.09,11.6c-0.62-1.48-1.23-2.96-1.83-4.42
					c-1.16-2.83-2.35-5.75-3.59-8.48c-0.99-2.19-2.02-4.42-3.07-6.64c-0.29-0.62-0.55-1.28-0.82-1.98c-0.36-0.94-1.18-2.64-1.49-3.3
					c-0.11-0.24-0.38-0.68-0.64-0.97c-1.05-1.21-2.48-2.01-3.13-2.33c-0.21-0.1-0.78-0.27-0.78-0.27c-0.25-0.06-0.57-0.07-1.17-0.07
					c-0.24,0-0.49,0-0.74-0.01c-3.47-0.13-6.33,0.63-9.35,1.43c-0.93,0.27-1.07,0.76-0.93,6.88c0.01,0.39,0.02,0.67,0.01,0.79
					c-0.02,2-0.01,4.09,0.02,6.58c0.06,4.46,0.06,8.74,0.01,13.08c-0.08,6.16-0.12,12.47-0.12,18.76c0,4.27,0.03,8.62,0.05,12.82
					l0.02,3.13c0,0.05,0,0.17-0.01,0.33v0.08c-0.02,0.63-0.05,1.69-0.03,2.63c0.01,0.74,0.03,1.48,0.25,2.01
					c0.25,0.85,1.14,3.26,3.26,3.98c0.02,0.01,0.05,0.02,0.07,0.03c0.41,0.13,0.86,0.2,1.36,0.17c0,0,0-0.01,0-0.02
					c4.06,0.05,10.84-1.47,11.29-1.63c0.64-0.23,1.06-0.84,1.06-1.53c0-1.82,0.08-3.67,0.15-5.46c0.09-2.24,0.19-4.55,0.14-6.87
					c-0.03-1.52-0.06-3.04-0.1-4.56c-0.07-3.04-0.13-6.14-0.17-9.24c1.03,2.29,2.04,4.59,2.99,6.9c1.51,3.59,3.01,7.19,4.79,11.5
					c0.23,0.56,0.5,1.1,0.76,1.62l0.03,0.06c0.39,0.77,0.75,1.51,0.99,2.27c0,0,0.84,2.61,2.28,3.76c0.44,0.35,1.09,0.36,1.59,0.38
					c0.01,0,0.03,0.01,0.04,0.01c0.08,0,0.17,0,0.26-0.01c0.88-0.09,1.78-0.11,2.74-0.13c1.01-0.02,2.06-0.04,3.13-0.16
					c0.42-0.05,2.19-0.41,3.43-0.68c2.83-0.63,4.12-0.92,4.12-2.41c0-4.62-0.06-8.5-0.17-12.2
					C185.82,82.27,185.97,71.4,186.11,60.88z"/>
				<path class="st3" d="M85.61,46.69c-0.72-0.16-2.05-0.21-2.69-0.22c-1.32-0.01-3.08,0.11-4.54,0.45
					c-0.07,0.01-0.21,0.04-0.44,0.08c-3.66,0.65-4.81,1.04-4.85,2.16c-0.02,0.45-0.04,0.89-0.06,1.34l-0.02,0.36
					c-0.06,1.33-0.13,2.71-0.15,4.06c-0.03,2.37-0.06,4.74-0.1,7.11l-0.01,0.9c-0.14,9.42-0.28,19.16-0.03,28.8
					c0.07,2.86,0.11,5.93-0.1,8.99c-0.12,1.81-2.78,2.98-4.53,3.33c-0.46,0.09-0.94,0.13-1.4,0.12c-0.24-0.95-0.24-2.06-0.24-3.15
					c0-0.27,0-0.53,0-0.79c-0.04-4.71,0.05-9.51,0.13-14.15c0.14-7.41,0.28-15.08-0.11-22.65c-0.06-1.23-0.07-2.51-0.08-3.74
					c-0.01-0.77-0.01-1.55-0.03-2.32c0-0.17,0.04-0.54,0.07-0.88c0.1-0.99,0.22-2.12-0.03-3.12l0.01-0.01
					c-0.13-1.01-1.07-1.89-2.06-2.56c-0.29-0.19-1.1-0.82-1.95-1.29c-0.26-0.14-0.41-0.23-0.7-0.27c-0.76-0.1-3-0.07-5.16,0.1
					c-1.46,0.12-3.97,0.59-4.15,0.63c-1.37,0.3-3.67,0.8-3.45,2.54c0.23,1.76,0.14,3.6,0.05,5.37c0,0-0.06,1.16-0.07,1.64
					c-0.08,2.37-0.12,4.87-0.12,7.86c0,2.55,0.04,5.15,0.07,7.68c0.03,2.33,0.07,5.23,0.07,7.97l-0.01,4.54
					c0,1.56-0.04,3.21-0.07,4.53c-0.05,2.26-0.1,4.6-0.05,6.93l0.02,0.74c0.06,3.25,0.15,7.29,2.03,10.34
					c1.32,2.14,4,5.52,6.05,7.36c1.87,1.68,4.15,2.78,6.85,3.5c0.84,0.23,1.77,0.36,2.76,0.41c1.8,0.08,3.58-0.14,4.93-0.34
					c1.87-0.28,3.7-0.58,5.43-1.12c0.54-0.17,1.05-0.36,1.51-0.56c0.81-0.35,1.52-0.82,2.15-1.24c0.3-0.2,0.6-0.39,0.91-0.58
					c0.69-0.43,1.41-0.87,2.06-1.41c1.61-1.33,3.7-3.6,4.73-5.99c0.38-0.87,0.6-1.78,0.79-2.58c0.07-0.27,0.13-0.54,0.2-0.81
					c0.27-1.08,0.56-2.2,0.7-3.34c0.14-1.13,0.12-2.28,0.09-3.39c-0.01-0.5-0.02-1-0.02-1.48c0.04-3.06,0.08-6.12,0.11-9.18
					l0.02-1.91c0.08-7.54,0.16-15.35-0.05-23.05c-0.01-0.28,0.06-1.71,0.12-3.09c0.09-2.1,0.21-4.72,0.25-6.89
					c0.03-1.58,0.05-2.74-0.06-3.61c-0.02-1.16-0.85-2.02-1.77-2.64c-0.55-0.36-1.72-1.01-2.37-1.31
					C86.09,46.81,85.84,46.75,85.61,46.69z"/>
				<path class="st3" d="M230.98,30.31c-4.51,0.17-8.86,0.41-12.61,1.47c-0.73,0.21-0.96,0.9-1.47,3c0,0-0.76,2.41-1.08,3.37
					c-0.55,1.63-1.17,3.38-1.89,5.36c-0.73,1.99-1.52,4.07-2.38,6.19c-0.06-0.17-0.11-0.32-0.18-0.52
					c-0.67-1.98-1.75-5.16-2.69-7.86c-0.47-1.36-0.91-2.59-1.23-3.49c-0.23-0.64-0.42-1.14-0.61-1.53l0,0
					c-0.77-1.67-1.63-2.08-2.44-2.6c-0.63-0.4-1.42-0.52-1.88-0.56c-0.01,0-0.01,0-0.02,0c-0.61-0.1-1.57,0.02-2.56,0.16
					c-0.49,0.07-1.04,0.15-1.47,0.18c-1.33,0.09-9.52,1.38-10.05,2.46c-0.09,0.12-0.24,0.49,0.25,1.31c0.5,0.84,1.39,2.73,2.05,4.34
					c0.14,0.35,0.28,0.7,0.43,1.04c0.95,2.28,1.91,4.55,2.86,6.83c1.89,4.49,3.78,8.98,5.67,13.47c1.37,3.24,2.52,5.95,3.73,8.64
					c-0.3,6.68-0.22,13.31-0.09,18.92v0.09c0.04,1.81,0.08,3.69-0.05,5.47c-0.04,0.51-0.04,3.63,0,4.34
					c0.01,0.13,0.04,0.31,0.12,0.5c0.22,1.1,1.12,3.44,3.76,4.23c0.35,0.12,0.75,0.22,1.26,0.24c0.48,0.02,0.97-0.01,1.37-0.02
					c1.3-0.04,6.78-0.96,6.93-0.98c1.49-0.22,2.63-0.47,3.33-0.96c0.37-0.27,0.53-0.82,0.58-1.28c0.19-1.77,0.05-3.35-0.04-5.2
					c-0.05-1.04-0.1-2.13-0.1-3.17c0-2.28,0.08-4.5,0.19-6.96c0.17-2.46,0.08-5.13-0.01-7.72c-0.06-1.83-0.12-3.56-0.09-5.19
					c0.31-1.14,0.69-2.02,1.14-3.02c0.17-0.39,0.35-0.79,0.53-1.22c2.8-7.34,5.67-14.49,7.87-19.9c1.1-2.7,2.2-5.41,3.31-8.1
					l0.43-1.05c0.28-0.68,0.55-1.36,0.84-2.03c0.08-0.18,0.41-1.21,0.47-1.41c0.49-1.57,0.16-2.59,0.07-2.94
					c-0.37-1.48-1.47-2.5-2.2-3.21c-0.17-0.17-0.31-0.29-0.44-0.41C232.24,30.25,230.98,30.31,230.98,30.31z"/>
				<path class="st3" d="M30.11,75.75c0,0.48,0.21,1.86,2.37,3.53c0.5,0.39,1.42,1.17,2.37,1.21c0.02,0,2.84,0.07,2.84,0.07
					c1.22-0.02,2.37-0.11,3.49-0.29c0,0,5.9-0.3,5.97-2.23c0.01-0.29,0.03-0.58,0.05-0.87c0.15-2.45,0.27-4.66,0.08-6.85
					c-0.24-2.87-0.67-5.38-1.95-7.71c-0.93-1.69-3.6-5.34-6.94-7.5c-1.75-1.13-4.01-2.39-7.06-2.86c-0.76-0.12-1.56-0.24-2.41-0.28
					c-2.85-0.13-6,0.38-8.66,1.39l-2.5,1.14c-1.62,0.79-3.91,2.09-5.65,3.8l-0.85,0.85C7.33,63.03,6,69.55,6.41,74.29
					c0.03,0.34,0.05,0.68,0.07,1.03l0.01,0.11c0.07,1.08,0.13,2.19,0.41,3.28c0.2,0.8,0.4,1.44,0.63,2.03
					c0.26,0.66,0.6,1.28,0.96,1.86c1.3,2.09,2.35,3.2,3.39,4.44c1.58,1.89,3.6,3.35,5.45,4.7L17.68,92
					c1.48,1.07,2.93,2.27,4.34,3.43c1.78,1.46,3.15,2.39,5.07,3.82c1.94,1.45,3.09,3.58,2.95,5.17c-0.22,2.5-2.23,4.27-4.24,5.06
					c-0.5,0.2-1.08,0.23-1.71,0.17c-0.13-0.64-0.18-1.3-0.21-1.73c-0.07-1.03-0.07-2.09-0.06-3.07c0-0.15,0.02-0.32,0.04-0.51
					c0.08-0.91,0.2-2.25-0.55-3.29c-0.08-0.1-0.37-0.39-0.53-0.5c-0.72-0.5-2.62-1.79-3.37-2.3c-0.19-0.13-0.38-0.3-0.95-0.29
					c-0.89,0.02-1.81,0.08-2.71,0.1c-2.8,0.06-5.69,0.12-8.37,1.35c-0.71,0.33-0.82,1.12-0.92,2.99c0,0-0.13,2.32-0.06,3.24
					c0.28,3.65,0.83,7.54,2.75,11.03c1.62,2.94,3.8,5.08,5.22,6.22c2.05,1.65,4.58,2.76,7.32,3.22c0.45,0.08,0.93,0.13,1.41,0.15
					c1.9,0.09,3.71-0.25,5.47-0.57l0.85-0.15l0.92-0.16l0.09-0.02c4.82-0.85,9.56-2.87,12.41-6.94c1.03-1.47,1.89-2.98,2.57-4.48
					c0.82-1.82,1.37-3.84,1.62-5.99c0.37-3.09,0.26-5.85-0.35-8.68c-0.21-0.97-1.35-3.61-3.49-6.29c-2.58-3.22-6.21-5.91-9.41-8.11
					c-0.46-0.31-0.92-0.62-1.39-0.93c-0.62-0.41-1.22-0.81-1.8-1.22c-0.02-0.01-0.04-0.03-0.06-0.04c-0.02-0.02-0.05-0.03-0.07-0.05
					c-0.62-0.44-1.21-0.89-1.78-1.38c-1.44-1.24-2.67-2.69-3.65-4.31c-0.45-0.75-0.72-1.42-0.88-2.24
					c-0.29-1.52-0.24-2.15,0.25-2.83c0.63-0.87,1.73-1.43,2.63-1.81c1.09-0.46,3.05-0.48,3.05-0.48s0.19,1.37,0.19,2.26
					C30.25,73.53,30.06,75.42,30.11,75.75z"/>
			</g>
			<g>
				<path class="st3" d="M277.37,28.12l-0.01-0.02c-1.09-1.46-3.27-1.85-4.91-1.93c-0.49-0.02-1-0.02-1.52,0.01
					c-0.92,0.05-6.41,0.68-8.55,0.94c-0.34,4.68-0.29,9.54-0.24,14.24c0.03,2.56,0.06,5.21,0.02,7.8
					c-0.11,8.26-0.07,16.65,0.14,24.93c0.22,8.88,0.26,14.21,0.13,16.65c0.65-0.03,1.31-0.09,2.01-0.16
					c0.68-0.07,1.39-0.14,2.1-0.17c0.05,0,0.1-0.01,0.15-0.01c0.01-2.76-0.06-6.9-0.21-13.13c-0.2-8.27-0.25-16.65-0.14-24.91
					c0.04-2.59,0.01-5.24-0.02-7.81c-0.05-4.56-0.1-9.27,0.21-13.81c2.33-0.28,7.29-0.85,8.13-0.9c0.51-0.03,1-0.03,1.47-0.01
					c0.66,0.03,1.41,0.12,2.12,0.31c-0.21-0.88-0.49-1.57-0.85-1.95L277.37,28.12z"/>
				<path class="st3" d="M304.69,59.35l-0.01-0.8c-0.04-1.93-0.1-3.87-0.15-5.8c-0.1-3.27-0.2-6.65-0.2-9.96
					c0.03-0.64,0.06-1.29,0.09-1.93c0.12-2.53,0.24-5.14,0.06-7.78c-0.21-3.09-1.14-6.03-2.05-8.86l-0.08-0.24
					c-0.62-1.95-1.48-3.6-2.87-5.52c-1.64-2.27-3.73-3.9-6.01-5.05c0.68,0.64,1.33,1.35,1.92,2.17c1.37,1.9,2.18,3.45,2.79,5.37
					l0.08,0.25c0.89,2.81,1.82,5.71,2.02,8.74c0.18,2.61,0.05,5.21-0.07,7.72c-0.03,0.66-0.06,1.31-0.09,1.92
					c0,3.33,0.1,6.72,0.2,10.05c0.06,1.92,0.11,3.83,0.15,5.75l0.01,0.79c0.03,2.13-0.01,4.29-0.05,6.39c-0.05,2.72-0.1,5.53,0,8.29
					c0.03,0.95-0.02,1.88-0.07,2.8c-0.05,0.84-0.1,1.71-0.07,2.55c0.01,0.5,0.04,1,0.06,1.5c0.07,1.68,0.14,3.43-0.02,5.17
					c-0.34,3.71-1.68,7.82-3.77,11.58c-1.92,3.46-4.48,6.5-7.41,8.78c-1.68,1.31-3.43,2.33-5.22,3.04c-1.77,0.7-3.7,1-5.57,1.29
					c-0.51,0.08-1.02,0.16-1.52,0.24c-2.71,0.47-5.46,0.92-8.17,1.34c-3.75,0.58-7.57,1.13-11.34,1.63
					c-0.77,0.1-1.56,0.22-2.38,0.34c-2.83,0.42-5.76,0.86-8.59,0.73l0,0c-0.28-0.01-0.73,0.02-1.2,0.04c-0.7,0.04-1.5,0.08-2.2,0.05
					c-0.65-0.03-1.14-0.12-1.53-0.28l-0.46-0.19l-0.15-0.06c-0.05,0-0.08-0.01-0.08-0.01s1.73,3.49,4.94,4.07
					c0.11,0.02,0.24,0.03,0.35,0.05c0.08,0.01,0.16,0.03,0.24,0.03c0,0,0,0,0-0.01c0.13,0.01,0.25,0.04,0.39,0.04
					c0.73,0.03,1.54-0.01,2.25-0.05c0.46-0.02,0.89-0.05,1.16-0.04l0,0c2.87,0.13,5.82-0.31,8.68-0.74c0.8-0.12,1.6-0.24,2.37-0.34
					c3.77-0.5,7.59-1.05,11.35-1.64c2.72-0.42,5.47-0.88,8.18-1.34c0.5-0.09,1.01-0.16,1.52-0.24c1.89-0.29,3.84-0.59,5.66-1.31
					c1.83-0.72,3.62-1.77,5.33-3.1c2.97-2.32,5.57-5.4,7.52-8.92c2.12-3.81,3.47-7.99,3.82-11.77c0.16-1.77,0.09-3.53,0.02-5.23
					c-0.02-0.5-0.04-1-0.06-1.49c-0.02-0.82,0.02-1.64,0.07-2.51c0.05-0.92,0.1-1.86,0.07-2.84c-0.09-2.74-0.04-5.55,0-8.26
					C304.68,63.66,304.72,61.49,304.69,59.35z"/>
			</g>
			<path class="st4" d="M42.96,67.58c-0.2-2.33-0.75-4.61-2.02-6.92c-2.08-3.77-5.6-6.55-9.79-7.37c-0.72-0.14-1.48-0.23-2.26-0.26
				c-2.79-0.13-5.82,0.4-8.23,1.32l-2.45,1.12c-1.98,0.97-3.96,2.23-5.37,3.61l-0.85,0.85C8.52,63.36,7,69.32,7.43,74.25
				c0.12,1.4,0.12,2.88,0.46,4.25c0.16,0.64,0.34,1.27,0.59,1.88c1.33,3.35,4.41,5.63,7.21,7.67c3.38,2.46,6.45,5.21,9.91,7.58
				c0.92,0.63,1.87,1.21,2.7,1.95c1.91,1.7,2.84,4.45,2.78,6.91c-0.07,2.84-2.35,4.98-4.87,5.98c-0.6,0.24-1.23,0.32-1.87,0.29
				c-0.25-0.01-0.49-0.04-0.74-0.08c-0.61-0.1-2.06-0.25-2.55-0.63c-1.41-1.09-1.65-3.2-1.77-4.81c-0.08-1.07-0.07-2.15-0.06-3.22
				c0.01-0.6,0.22-1.57,0.06-2.27c-0.05-0.22-0.14-0.75-0.71-0.73c-3.54,0.17-7.25-0.17-10.53,1.27c-0.06,0.03-0.25,0.08-0.33,0.35
				c-0.17,0.57-0.19,1.9-0.22,2.16c-0.08,0.93-0.11,1.86-0.04,2.8c0.38,4.91,0.85,9.89,5.04,13.26c1.89,1.51,4.17,2.46,6.51,2.85
				c0.4,0.07,0.8,0.11,1.2,0.13c2,0.09,4.01-0.36,5.95-0.7c0.34-0.06,0.67-0.12,1.01-0.18c6.46-1.15,11.1-4.51,13.79-10.5
				c0.78-1.74,1.26-3.6,1.49-5.51c0.33-2.76,1.35-7.38-3.46-13.65c-2.36-3.08-5.86-5.57-9.02-7.75c-1.77-1.22-3.62-2.34-5.26-3.75
				c-1.58-1.36-2.94-2.97-4.02-4.75c-0.56-0.92-0.9-1.78-1.1-2.83c-0.3-1.55-0.41-2.83,0.53-4.12c0.81-1.12,2.07-1.81,3.29-2.34
				c0.91-0.39,2.26-0.69,3.54-0.63c1.15,0.05,2.24,0.39,2.9,1.23c1.5,1.87,1.57,4.89,1.46,7.11c-0.02,0.32-0.32,2.23-0.06,2.42
				c0.5,0.38,1.33,0.51,2.11,0.55c0.49,0.02,0.96,0.01,1.33,0c1.25-0.02,2.47-0.24,3.69-0.43c0.44-0.07,4.44-0.28,4.46-0.89
				c0.01-0.3,0.03-0.61,0.05-0.91C43.02,71.91,43.14,69.73,42.96,67.58z"/>
			<path class="st4" d="M85.43,47.74c-0.58-0.08-1.82-0.2-2.52-0.24c-0.09,0-0.18-0.01-0.25-0.01c-1.35-0.01-2.75,0.18-4,0.47
				c-0.45,0.1-4.5,0.71-4.52,1.3c-0.08,1.9-0.2,3.82-0.22,5.73c-0.14,12.24-0.46,24.52-0.14,36.78c0.08,3.03,0.11,6.07-0.1,9.09
				c-0.17,2.42-3.27,3.84-5.34,4.25c-0.56,0.11-1.17,0.16-1.78,0.14c-1.62-0.07-3.23-0.71-4-2.28c-0.82-1.69-0.68-3.71-0.7-5.5
				c-0.12-12.23,0.67-24.49,0.02-36.73c-0.11-2.03-0.06-4.08-0.11-6.11c-0.02-0.91,0.28-2.97-0.05-4.01
				c-0.02-0.07-0.11-0.27-0.44-0.26c-2.82,0.1-5.41-0.19-8.17,0.57c-0.61,0.17-3.23,0.55-3.1,1.51c0.31,2.4,0.06,4.8-0.02,7.19
				c-0.09,2.6-0.12,5.21-0.12,7.82C49.88,72.67,50,77.89,50,83.11c0,1.52-0.01,3.03-0.01,4.55c-0.01,3.81-0.21,7.62-0.12,11.44
				c0.08,3.34,0.01,7.51,1.88,10.52c0.4,0.65,0.9,1.23,1.4,1.81c0.66,0.77,1.13,1.41,1.92,2.08c1.82,1.55,3.88,2.52,6.16,3.14
				c0.77,0.21,1.58,0.31,2.4,0.35c1.56,0.07,3.16-0.11,4.61-0.33c1.66-0.25,3.52-0.54,5.19-1.06c0.47-0.15,0.92-0.31,1.35-0.5
				c0.68-0.29,1.29-0.7,1.9-1.11c0.93-0.62,1.99-1.18,2.84-1.89c1.65-1.36,3.43-3.42,4.28-5.39c0.32-0.74,0.51-1.53,0.71-2.32
				c0.32-1.29,0.7-2.65,0.87-3.96c0.19-1.51,0.04-3.15,0.06-4.68c0.04-3.06,0.08-6.12,0.11-9.18c0.08-8.29,0.2-16.59-0.03-24.89
				c-0.03-1.13,0.63-12.22,0.28-13.73C85.74,47.78,85.55,47.75,85.43,47.74z"/>
			<path class="st4" d="M133.3,96.2c-0.09-9.27-0.21-18.53-0.09-27.79c0.07-5.38,0.23-10.77,0.19-16.15c-0.01-0.75,0-7.95-0.1-9.12
				c-0.01-0.16-0.2-0.18-0.27-0.2c-0.72-0.13-1.46-0.21-2.21-0.24c-1.83-0.08-3.73,0.1-5.66,0.46c-0.97,0.18-1.95,0.41-2.92,0.68
				c-0.06,0.02-0.22,0.06-0.22,0.24c-0.04,2.41-0.02,4.83-0.01,7.24c0.04,9.99,0.36,20.01-0.27,29.96
				c-3.79-6.79-6.51-14.18-9.71-21.19c-1.09-2.4-1.98-4.87-3.14-7.24c-0.62-1.26-1.26-2.51-1.73-3.83c-0.19-0.54-1-2.91-1.54-3.26
				c-0.13-0.08-0.34-0.11-0.56-0.12c-0.25-0.01-0.52,0-0.73-0.01c-0.04,0-0.09,0-0.13-0.01c-3.24-0.12-6.15,0.59-9.1,1.42
				c-0.22,0.06-0.23,0.15-0.24,0.28c-0.19,4.87-0.21,9.66-0.12,14.55c0.08,4.91,0.02,9.79-0.04,14.69
				c-0.08,6.25-0.11,12.49-0.09,18.75c0.01,3.13,0.03,6.25,0.07,9.38c0.02,1.56,0.04,3.13,0.06,4.69c0.02,1.13-0.36,2.42,0.14,3.52
				c0.09,0.01,0.19,0.01,0.28,0.02c3.26,0.15,8.97-1.01,10.66-1.41c0.25-0.06,0.47-0.42,0.47-0.57c0.02-3.13,0.25-6.24,0.24-9.37
				c-0.01-3.32-0.13-6.64-0.11-9.96c0.02-2.73-0.1-5.48-0.14-8.22c-0.02-1.36-0.03-2.73-0.03-4.09c0-1.11-0.11-3.13,0.03-4.03
				c0.09,0.28,1.04,2.35,1.32,3.08c1.08,2.81,2.69,5.47,3.9,8.24c1.28,2.96,2.53,5.93,3.73,8.92c1.07,2.66,2.2,5.3,3.33,7.95
				c0.89,2.08,2.09,4.22,2.8,6.35c0.03,0.1,0.11,0.3,0.54,0.28c1.01-0.05,2.08-0.03,3.14-0.06c2.51,0,5.09-0.74,7.71-0.92
				c0.62-0.04,0.65-0.35,0.69-0.74c0.12-1.05-0.08-2.95-0.08-3.32C133.35,102.11,133.33,99.15,133.3,96.2z"/>
			<path class="st4" d="M163.16,88.6c1.61,3.83,3.2,7.67,4.79,11.5c0.52,1.27,1.26,2.45,1.71,3.75c0.03,0.1,0.13,0.26,0.45,0.27
				c1.84,0.01,3.68-0.04,5.5-0.25c0.46-0.05,4.78-0.93,5.87-1.33c0.32-0.12,0.25-0.39,0.25-0.51c0-3.93-0.05-7.84-0.17-11.78
				c-0.39-12.27-0.14-24.47,0.02-36.71c0.04-2.88,0.07-5.76,0.11-8.64c0.01-0.66,0.07-6.5-0.09-7.69c-0.02-0.13-0.2-0.23-0.27-0.25
				c-0.72-0.13-1.46-0.21-2.21-0.24c-2.75-0.12-5.66,0.34-8.58,1.14c-0.07,0.02-0.21,0.06-0.23,0.26c-0.24,3.16-0.01,6.36,0,9.53
				c0.04,9.23,0.48,19.28-0.1,28.46c-4.13-7.4-7.15-16.25-10.63-23.95c-1-2.21-2.02-4.41-3.05-6.61c-0.87-1.84-1.36-3.92-2.52-5.62
				c-0.01-0.01-0.02-0.03-0.03-0.04c-0.03-0.04-0.06-0.07-0.1-0.09c-0.11-0.06-0.19-0.05-0.27-0.06c-0.36-0.02-0.92,0-1.42-0.02
				c-3.25-0.12-5.94,0.58-8.9,1.36c-0.04,0.01-0.2,0.08-0.23,0.22c-0.26,1.02-0.08,5.91-0.08,6.52c-0.02,2.18-0.01,4.37,0.02,6.55
				c0.06,4.38,0.06,8.73,0.01,13.11c-0.08,6.25-0.12,12.49-0.12,18.74c0,5.31,0.04,10.63,0.07,15.95c0,0.36-0.14,3.62,0.07,4.51
				c0.03,0.14,0.3,0.23,0.4,0.24c3.22,0.15,8.98-1.03,10.67-1.41c0.48-0.11,0.46-0.33,0.46-0.44c0.02-4,0.37-7.96,0.29-11.98
				c-0.16-7.94-0.4-15.88-0.29-23.81c0.09,0.28,1.04,2.35,1.32,3.08C158.38,77.75,160.89,83.11,163.16,88.6z"/>
			<path class="st4" d="M230.76,31.39c-3.98,0.15-8.39,0.38-12.07,1.42c-0.3,0.09-0.81,2.47-0.93,2.84
				c-0.32,0.96-0.63,1.92-0.95,2.88c-0.61,1.81-1.25,3.6-1.9,5.39c-1.41,3.83-2.87,7.63-4.61,11.31c0.17-0.37-0.93-2.15-1.12-2.54
				c-0.39-0.8-1.52-3.44-1.71-3.96c-0.4-1.13-4.36-12.9-5.02-14.39c-0.04-0.1-0.24-0.18-0.33-0.18c-0.88-0.04-2.44,0.3-3.55,0.37
				c-1.48,0.1-2.92,0.36-4.37,0.59c-0.33,0.05-3.7,0.72-4.6,1.14c-0.17,0.08-0.15,0.29-0.12,0.34c1.1,1.73,1.84,3.78,2.62,5.65
				c0.95,2.28,1.91,4.55,2.86,6.83c1.89,4.49,3.77,8.98,5.67,13.47c1.25,2.96,2.51,5.92,3.83,8.86c-0.3,6.38-0.24,12.7-0.1,19.1
				c0.04,1.87,0.09,3.8-0.05,5.66c-0.03,0.43-0.04,3.49,0,4.21c0.02,0.4,0.55,0.53,1.18,0.56c0.64,0.03,1.39-0.05,1.81-0.04
				c0,0,4.38-0.81,5.98-1.08c0.43-0.05,1.88-0.03,2.51-0.26c0.23-0.08,0.18-0.21,0.19-0.28c0.25-2.55-0.11-5.47-0.11-8.33
				c0-2.37,0.09-4.75,0.19-7.03c0.28-4.2-0.19-8.98-0.1-13.07c0.47-1.85,1.13-3.06,1.79-4.65c2.54-6.66,5.19-13.28,7.86-19.89
				c1.1-2.71,2.2-5.41,3.32-8.11c0.43-1.03,0.84-2.07,1.28-3.1c0.08-0.19,0.17-0.38,0.25-0.57c0.34-0.76,0.79-1.92,0.93-2.79
				C231.45,31.33,230.87,31.38,230.76,31.39z"/>
			<g>
				<path class="st5" d="M243.26,110.71c1.13-0.01,2.32-0.1,3.1-0.08c3.54,0.16,7.32-0.61,10.79-1.07c3.78-0.5,7.55-1.04,11.31-1.63
					c2.72-0.42,5.44-0.87,8.15-1.34c2.26-0.39,4.73-0.62,6.86-1.46c1.78-0.71,3.44-1.71,4.94-2.88c2.91-2.27,5.32-5.2,7.11-8.43
					c1.83-3.31,3.27-7.29,3.62-11.12c0.2-2.16,0.02-4.34-0.04-6.52c-0.05-1.79,0.2-3.56,0.14-5.34c-0.16-4.91,0.11-9.8,0.05-14.7
					c0-0.26-0.01-0.52-0.01-0.78c-0.1-5.28-0.35-10.55-0.35-15.83c0.13-3.18,0.37-6.36,0.15-9.56c-0.2-2.97-1.14-5.85-2.04-8.69
					c-0.61-1.92-1.43-3.38-2.61-5.01c-3.02-4.17-7.97-6.11-12.9-6.55c-0.27-0.02-0.54-0.04-0.81-0.05c-0.35-0.02-0.7-0.02-1.04-0.03
					c-2.94-0.07-5.82,0-8.75,0.12c-3.92,0.15-7.83,0.4-11.73,0.72c-1.59,0.13-13.19,0.08-16.93,1.33c-0.73,0.24-1.36,1.12-1.42,1.99
					c-0.23,3.58-0.16,7.18-0.24,10.77c-0.09,3.83,0.16,7.73,0.23,11.58c0.14,8.33,0.24,16.67,0.3,25c0.07,8.33-0.91,39.26-0.2,47.48
					C241.09,110.23,241.78,110.72,243.26,110.71z M261.25,26.05c0-0.04,8.42-1.02,9.56-1.08c0.52-0.03,1.07-0.03,1.64-0.01
					c2.16,0.1,4.54,0.67,5.86,2.43c2.09,2.2,1.89,10.66,1.82,15.1c-0.09,6.4-0.1,12.8-0.01,19.21c0.05,3.83,0.14,7.65,0.25,11.48
					c0.11,3.56,0.45,6.39-0.14,9.83c-0.11,0.67-0.26,1.34-0.46,2.01c-0.27,0.94-0.62,1.88-1.23,2.63c-2.59,3.16-8.04,3.8-11.89,3.97
					c-1.77,0.08-3.59,0.42-5.38,0.34c-0.08,0-0.08-0.25-0.06-0.67c0.21-3.07-0.09-15.9-0.12-17.22c-0.2-8.33-0.25-16.66-0.14-24.98
					C261.06,41.46,260.62,33.63,261.25,26.05z"/>
			</g>
		</g>
	</g>
	<text transform="matrix(1.0063 0 0 1 52.757 185.5562)" class="st0 st6 st7 st8">V</text>
	<text transform="matrix(1.0063 0 0 1 89.9601 185.5562)" class="st0 st6 st7">OD</text>
	<text transform="matrix(1.0063 0 0 1 177.7697 185.5562)" class="st0 st6 st7 st9">K</text>
	<text transform="matrix(1.0063 0 0 1 214.3991 185.5562)" class="st0 st6 st7">A</text>
	<g>
		<path class="st4" d="M79.54,206.83l-0.96-0.27c-3.76-1.03-5.89-1.75-5.89-4.5c0-3.33,3.21-3.83,5.12-3.83
			c2.26,0,5.72,0.72,8.64,2.74l1.41,0.97v-6.53l-0.42-0.26c-2.45-1.55-6.02-2.48-9.55-2.48c-6.84,0-11.09,3.69-11.09,9.64
			c0,6.15,4.52,8.27,9.41,9.65l0.93,0.26c3.99,1.1,6.26,1.87,6.26,4.77c0,3.8-3.86,4.22-5.51,4.22c-2.43,0-6.07-0.79-9-3.02
			l-1.44-1.09v6.81l0.44,0.26c2.67,1.6,6.49,2.6,9.96,2.6c6.95,0,11.44-3.92,11.44-9.99C89.3,210.16,84.27,208.17,79.54,206.83z"/>
		<polygon class="st4" points="98.72,211.79 111.05,211.79 111.05,206.41 98.72,206.41 98.72,198.67 112.79,198.67 112.79,193.15 
			92.79,193.15 92.79,226.3 113.18,226.3 113.18,220.78 98.72,220.78 		"/>
		<polygon class="st4" points="123.6,193.15 117.67,193.15 117.67,226.3 138.5,226.3 138.5,220.78 123.6,220.78 		"/>
		<polygon class="st4" points="132.7,198.67 143.29,198.67 143.29,226.3 149.22,226.3 149.22,198.67 159.81,198.67 159.81,193.15 
			132.7,193.15 		"/>
		<polygon class="st4" points="163.9,193.15 163.9,198.67 179.94,198.67 162.63,225.26 163.16,226.3 189.36,226.3 189.36,220.78 
			172.54,220.78 189.56,194.62 189.8,194.11 189.32,193.15 		"/>
		<polygon class="st4" points="199.68,211.79 212.02,211.79 212.02,206.41 199.68,206.41 199.68,198.67 213.76,198.67 
			213.76,193.15 193.76,193.15 193.76,226.3 214.15,226.3 214.15,220.78 199.68,220.78 		"/>
		<path class="st4" d="M235.1,212.17c0.92-0.26,1.75-0.62,2.54-1.11c2.85-1.7,4.49-4.67,4.49-8.13c0-3.52-1.71-6.4-4.82-8.1
			c-2.78-1.54-5.95-1.67-9.24-1.67h-9.44v33.14h5.93v-13.43h4.01l9.63,13.43h7.24L235.1,212.17z M224.57,198.67h3.2
			c3.04,0,4.86,0.14,6.32,0.93c1.38,0.76,2.11,2.03,2.11,3.68c0,1.37-0.51,2.44-1.52,3.18c-1.16,0.88-2.85,1.25-5.65,1.25h-4.47
			L224.57,198.67L224.57,198.67z"/>
	</g>
</g>
</svg>
